

<svg
   xmlns:dc="http://purl.org/dc/elements/1.1/"
   xmlns:cc="http://creativecommons.org/ns#"
   xmlns:rdf="http://www.w3.org/1999/02/22-rdf-syntax-ns#"
   xmlns:svg="http://www.w3.org/2000/svg"
   xmlns="http://www.w3.org/2000/svg"
   version="1.1"
   width="64"
   height="64"
   viewBox="0 0 51.200002 51.199997"
   id="svg2993"
   style="fill-rule:evenodd">
  <metadata
     id="metadata3009">
    <rdf:RDF>
      <cc:Work
         rdf:about="">
        <dc:format>image/svg+xml</dc:format>
        <dc:type
           rdf:resource="http://purl.org/dc/dcmitype/StillImage" />
        <dc:title></dc:title>
      </cc:Work>
    </rdf:RDF>
  </metadata>
  <defs
     id="defs3007" />
  <g
     transform="matrix(0.67191604,0,0,0.67191604,-163.35556,-335.87403)"
     id="g3786">
    <path
       d="m 281.219,499.875 c 21.03,0 38.1,17.07 38.1,38.1 0,21.03 -17.07,38.1 -38.1,38.1 -21.03,0 -38.1,-17.07 -38.1,-38.1 0,-21.03 17.07,-38.1 38.1,-38.1 z"
       id="path3001"
       style="opacity:0.5;fill:#000000;stroke:none" />
    <path
       d="m 286.555,549.614 c -1.199,-10.326 -7.248,-26.537 -11.355,-34.01 14.918,-1.83 19.416,9.179 29.559,11.592 -10.449,-0.045 -15.112,-5.136 -22.531,-3.324 3.066,7.623 8.522,25.055 6.903,31.471 -1.898,8.538 -21.359,5.837 -21.294,-2.641 0.057,-7.53 13.53,-7.741 18.718,-3.088 z"
       id="path3003"
       style="fill:#ffffff;stroke:none" />
  </g>
</svg>
