<?xml version="1.0" encoding="UTF-8" standalone="no"?>
<!-- Created with Inkscape (http://www.inkscape.org/) -->

<svg
   xmlns:dc="http://purl.org/dc/elements/1.1/"
   xmlns:cc="http://creativecommons.org/ns#"
   xmlns:rdf="http://www.w3.org/1999/02/22-rdf-syntax-ns#"
   xmlns:svg="http://www.w3.org/2000/svg"
   xmlns="http://www.w3.org/2000/svg"
   version="1.1"
   width="90"
   height="127.99999"
   viewBox="0 0 72.000003 102.39999"
   id="svg3798"
   style="fill-rule:evenodd">
  <metadata
     id="metadata3814">
    <rdf:RDF>
      <cc:Work
         rdf:about="">
        <dc:format>image/svg+xml</dc:format>
        <dc:type
           rdf:resource="http://purl.org/dc/dcmitype/StillImage" />
        <dc:title></dc:title>
      </cc:Work>
    </rdf:RDF>
  </metadata>
  <defs
     id="defs3812" />
  <path
     d="m 30.214556,-2.1573034e-6 c 4.235028,0 8.068597,1.6969899573034 10.84341,4.4404499573034 2.774813,2.74296 4.491879,6.5329102 4.491879,10.7188402 0,4.18544 -1.717066,7.97538 -4.491879,10.71834 -1.408642,1.39277 -3.091328,2.51582 -4.960078,3.28395 0.636062,6.47714 1.343923,11.97066 2.243917,11.9443 1.465271,-0.0249 1.924369,-3.8731 5.761983,-3.96589 4.34424,-0.22764 4.152107,2.84487 5.492996,2.83017 1.857629,-0.0406 1.594709,-2.94323 5.419177,-2.71153 3.839637,-0.0725 4.111658,3.60591 5.699288,3.56333 1.570438,-0.0401 1.023364,-1.50382 3.387617,-1.54285 1.105274,-0.0299 4.230983,0.37974 5.323111,3.90199 1.18516,3.82493 0.999094,10.65039 2.552342,19.35587 0.493479,21.70235 -7.60141,28.05527 -7.417366,35.40752 -10.540041,7.037382 -23.941861,4.529682 -28.883738,0.72808 -0.764488,-5.67961 -4.188511,-10.29752 -9.196117,-15.1162 -5.038954,-4.87345 -7.7086,-14.55443 -23.2592805,-18.3388 -5.8489492,-1.42421 -2.53818518,-4.17883 0.5622433,-6.11006 5.0379435,-3.13945 13.2612582,2.39313 18.8897592,4.83036 4.833676,2.10208 4.82862,-3.31083 5.227044,-6.08979 1.097183,-7.48357 -0.695726,-18.97815 -1.356059,-27.96705 -2.761666,-0.67027 -5.228054,-2.07927 -7.173659,-4.0034 -2.774812,-2.74296 -4.491879,-6.5329 -4.491879,-10.71834 0,-4.18593 1.717067,-7.9758802 4.491879,-10.7188402 C 22.145959,1.6969878 25.979528,-2.1573024e-6 30.214556,-2.1573024e-6 z M 26.393122,27.473208 c -0.02023,-0.56531 -0.05056,-1.11746 -0.06067,-1.65338 -0.158763,-6.24645 -1.001117,-10.23463 -0.167864,-12.85491 0.656288,-2.0605 2.305602,-3.5095702 3.557503,-3.5085502 2.843577,0.003 4.716374,2.5934002 4.987383,5.0372202 0.384266,3.44213 0.760444,7.94697 1.161902,12.26929 1.326732,-0.63276 2.527061,-1.48049 3.556492,-2.49807 2.358187,-2.33025 3.815368,-5.54981 3.815368,-9.10552 0,-3.5562 -1.457181,-6.7757702 -3.815368,-9.1060102 -2.356163,-2.32975 -5.614343,-3.7712 -9.211285,-3.7712 -3.596942,0 -6.855122,1.44145 -9.212297,3.7712 -2.357176,2.33024 -3.814357,5.5498102 -3.814357,9.1060102 0,3.55571 1.457181,6.77527 3.814357,9.10552 1.486507,1.46883 3.330988,2.58477 5.390861,3.2084 z"
     id="path3806"
     style="opacity:0.25;fill:#2c2c2b;stroke:none" />
</svg>
